<svg width="199" height="68" fill="none" xmlns="http://www.w3.org/2000/svg"><path d="M82.14 49.49c.35 0 .7-.1 1.02-.18v2.45c-.63.24-1.4.38-2.17.38-1.4 0-2.51-.56-3.07-1.78a8.88 8.88 0 01-5.8 2c-2.8 0-5.38-1.54-5.38-4.72 0-3.95 3.63-5.14 6.85-5.14 1.32 0 2.79.18 3.98.46v-.56c0-1.92-1.4-3.25-4.02-3.25-2.27 0-4.15.56-5.52 1.19v-3.15a18.76 18.76 0 015.87-1c4.33 0 7.09 2.05 7.09 6.7v5.48c.04.84.52 1.12 1.15 1.12zm-11.87-2.1c0 1.5 1.33 2.27 2.86 2.27 1.64 0 3.22-.6 4.44-1.81v-2.59c-.95-.17-2.24-.38-3.32-.38-1.92 0-3.98.6-3.98 2.51zM93.04 36.15c1.71 0 3.39.38 4.71 1.18v3.15a7.5 7.5 0 00-4.26-1.3c-2.72 0-5.44 1.44-5.44 5.07 0 3.5 2.65 5.06 5.4 5.06 1.65 0 3.26-.49 4.48-1.18v3.17c-1.47.7-3.14 1.05-5.07 1.05-4.08 0-8.27-2.48-8.27-7.96-.04-5.76 4.36-8.24 8.45-8.24zM115.43 49.49c.34 0 .7-.1 1-.18v2.45c-.62.24-1.39.38-2.16.38-1.4 0-2.51-.56-3.07-1.78a8.88 8.88 0 01-5.8 2c-2.8 0-5.38-1.54-5.38-4.72 0-3.95 3.64-5.14 6.85-5.14 1.33 0 2.8.18 3.98.46v-.56c0-1.92-1.4-3.25-4.02-3.25-2.27 0-4.15.56-5.51 1.19v-3.15a18.77 18.77 0 015.86-1c4.33 0 7.1 2.05 7.1 6.7v5.48c.03.84.55 1.12 1.15 1.12zm-11.84-2.1c0 1.5 1.32 2.27 2.86 2.27 1.64 0 3.21-.6 4.44-1.81v-2.59c-.95-.17-2.24-.38-3.32-.38-1.96 0-3.98.6-3.98 2.51zM134.43 29.51V51.9h-3.08v-2.45a7.13 7.13 0 01-5.87 2.83c-4.64 0-7.6-3.66-7.6-8.1 0-4.4 2.96-8.1 7.6-8.1a7.03 7.03 0 015.52 2.4v-8.97h3.43zm-8.35 9.64c-2.76 0-4.75 2.06-4.75 5.1 0 3 2.02 5.06 4.75 5.06a5.33 5.33 0 004.89-3.21v-3.74a5.33 5.33 0 00-4.9-3.21zM145.5 36.15c6.1 0 8.2 4.92 7.22 9.36H141.2c.38 2.76 3.07 3.9 5.87 3.9 1.85 0 3.56-.45 4.85-1.07v2.93c-1.4.66-3.35 1.05-5.48 1.05-4.72 0-8.7-2.7-8.7-8.1a7.68 7.68 0 017.76-8.07zm.17 2.83c-2.3 0-4.36 1.36-4.5 3.94h8.48c.21-1.32-.63-3.94-3.98-3.94zM156.22 51.9V36.57h3.04v1.92a6.96 6.96 0 015.1-2.34c2.3 0 3.9.94 4.78 2.44a7.63 7.63 0 015.38-2.44c4.05 0 5.83 3 5.83 6.18v9.6h-3.42v-9.5c0-1.99-1.19-3.21-3.04-3.21-1.68 0-3 1.12-3.8 2.06.03.35.06.7.06 1.05v9.6h-3.42v-9.5c0-1.99-1.19-3.21-3.04-3.21s-3.25 1.33-4.05 2.38v10.33h-3.42v-.03zM195.44 36.57H199l-7.2 17.42c-1.67 3.98-3.84 5.35-6.18 5.35-.66 0-1.32-.1-2.02-.25v-2.9c.52.18 1.05.21 1.57.21 1.68 0 2.9-1.18 3.8-3.56l.32-.77L182 36.6h3.63l5.17 11.56 4.65-11.6zM71.28 2.65v8.74a6.95 6.95 0 014.96-2.1c3.88 0 6.32 2.62 6.32 6.25v9.5h-3.42V16c0-2.48-1.54-3.67-3.56-3.67-1.96 0-3.43 1.33-4.3 2.55v10.16h-3.42V2.65h3.42zM91.92 4.23v5.44h5.55v3h-5.55v7.03c0 2.02.94 2.69 2.9 2.69 1.12 0 2.13-.21 3.1-.6v2.94c-1.14.42-2.61.66-4.11.66-2.97 0-5.28-1.47-5.28-5.06v-7.69h-2.76v-3h2.76V5.06l3.4-.83zM101.88 25.04V9.71h3.03v1.92a6.96 6.96 0 015.1-2.34c2.3 0 3.91.94 4.79 2.44a7.63 7.63 0 015.38-2.44c4.05 0 5.83 3 5.83 6.18v9.6h-3.43v-9.53c0-1.99-1.18-3.21-3.03-3.21-1.68 0-3 1.12-3.81 2.06.04.35.07.7.07 1.05v9.6h-3.42v-9.5c0-1.99-1.19-3.21-3.04-3.21s-3.25 1.33-4.05 2.37v10.34h-3.42zM134.42 2.65H131v22.4h3.42V2.64zM27.07.03L26.79 0 0 2.8v49.1l26.79 15.92L53.57 51.9V2.8L27.07.02zm23.01 49.88l-23.3 13.86L3.5 49.91V29.79l23.2 13.8.03 2.51-15.9-9.46-.03 2.44 15.96 9.6.04 2.55-15.96-9.53-.04 2.44 15.96 9.6 16.14-9.63v-2.45h-.04v-7.92l7.2-4.3v20.47h.03zm-.03-23.09l-6.36 3.74-2.93 1.75-14.04-8.32-.04 2.45 11.98 7.09-.1.07-.25.14-1.7 1.01-9.9-5.87-.03 2.45 7.83 4.64-1.86 1.22-.03.04-5.9-3.5-.04 2.45 3.88 2.27-3.95 2.38L3.56 27.1l23.09-13.9 23.4 13.62zm.03-2.4l-23.4-13.8L3.5 24.38V5.98l23.3-2.45 23.3 2.44v18.44z" fill="#000"/></svg>