<svg width="160" height="66" fill="none" xmlns="http://www.w3.org/2000/svg"><path fill-rule="evenodd" clip-rule="evenodd" d="M48 24.8c3.7 4 11.6.4 9-5-1.7-3.5-4.3-2.7-6.1-1.8-3.7 1.8-4.4 5-2.9 6.8zM42.1 22c2.4 4.9-5 8.2-8.3 4.5-1.4-1.5-.7-4.5 2.6-6.2 1.7-.8 4.1-1.6 5.7 1.7zM158 50.4l-3.7.3v.1c-2.4 17.4-26.2 20.2-26.8 6.6-.3-6.2 11.6-8 23.4-9 .2-5.5-3.6-4.3-8.2-2.8-4.8 1.5-10.5 3.4-13.4-1.9-5-9 14.6-18 16.7-16 6.4 5.5 3.5 6.5-1.2 8.2h-.2c-9.5 3.5-5.8 4.2-4.5 3.8 7.6-2.3 14.4-1 14.3 8.3l1.9-.1 1.9-.2c2.3-.2 2.5 2.5-.2 2.7zm-7.5.7c-9.1 1-17 2.5-16.1 5.4 1.7 5.6 13.5 6.8 16.1-5.4zm-32.6-16.9C117 40 117 46 117.7 46c.3 0 2.3-.3 3-1.5l1.7-4.3c1.2-3.2 2.5-6.8 4.5-7.8 2.8-1.4-8.1-5-9.1 2zm-89 28.5C21 68 14.8 66.8 16.8 51.8c1.4-10.9-1-11.5-3.2-9.4C10.7 45 9 52 9 58.8a51 51 0 001 4.8c.3 1.6-5 3.3-8 1C.9 63.8 0 55.9 0 45 0 36.3 1.2 30.2 2.2 30c8-2.2 9.3 1.3 7.6 8-.7 2.5-1.1 5.2-1.4 7.9 1.7-4.7 4-8.5 6.8-10.2 7.4-4.7 13.6-2.5 12.5 6.8-2 16.6-2.2 18.8-.4 17.5 2.2-1.5 3.6 1.3 1.6 2.7zm13 2.4c5.4.7 11-1 13.2-4.5 1.8-3 .3-4-1.8-1.6-4.5 5.1-9 2.8-11-2.3l.5-.2c9.4-3.8 15.3-14 11.6-19.8C49 28.7 33 35.9 31 47c-1.9 10.4 3 17.3 10.7 18.1zm-.4-12c5.8-4 7.8-13.2 6.2-15.8-1.8-2.7-5.1 1.5-6.3 11.7v4.2zm35.7-2a12.3 12.3 0 007.3-8v-.2l.4-1.6.1-.5c1.3-6.8-3-10.7-8.8-7.8-3.3 1.6-7.4 7.8-9.8 14.5A65 65 0 0169 37.1c2-6-1.7-9-8.1-7.2-1.1.2-3 8-3 16.9 0 10.7.5 16.9 1.6 17.7 3 2.3 8.5.6 8-1l-.6-1.8v-.5c-1.1-7 3-16.7 6.3-19.3.9-.7 2.1-.2 2.3 1.7-2.8 1.4-3.7 3.7-3.7 4.8 0 2.7 2.8 3.4 5.2 2.7z" fill="#A6A6A6"/><path fill-rule="evenodd" clip-rule="evenodd" d="M113.2 27.2c-.5 2.5-.8 5-1.1 7.5-1 10-.6 19 .6 23 .7 2.1 3.5 5 6 2 3-3.2 6-1.3 2.3 2.4a14.3 14.3 0 01-11 3.4c-3.2-.3-5.1-2.4-6.2-5.5-.5 1-1 1.7-1.6 2.3a9.3 9.3 0 01-8 3.1c-6.6-.7-10.5-7.9-8.6-18.1 1.9-10.8 11.3-14.7 16.7-11.9a1240.4 1240.4 0 00.4-4.5v-.4l-5 1c-24 4-15.7-15.6-9.8-20.8 6.6-5.7 7.4-1.8 5.3-.5-3.7 2.3-5.3 15.9 5.2 15.9a47 47 0 005-.3c3.3-18.3 13.3-27.2 21.3-24.3 9 3.3 8 17.6-11.5 25.7zm-11 24.4a156 156 0 010-11.7v-.8-.6c-3.4-1.6-6.7 3.6-7.5 10.7-1 8.4 2.8 12.9 4.9 10.8 1.6-1.6 2.5-6.8 2.7-8.4zm24.2-43.2c-1.8-2.7-8.3.6-12.1 14.3 9.5-4.5 13.3-12.4 12-14.3z" fill="#A6A6A6"/></svg>